# xmcd
#
# Track frame offsets: 
#        150
#        25553
#        80049
#
# Disc length: 2237 seconds
#
# Revision: 0
# Processed by: cddbd v1.5.2PL0 Copyright (c) Steve Scherf et al.
# Submitted via: ExactAudioCopy v0.99pb5
#
DISCID=1708bb03
DTITLE=Cream  - Synergy - Disc 1  MA-001
DYEAR=1900
DGENRE=
TTITLE0=Tales of Brave Ulysses
TTITLE1=Sunshine of Your Love
TTITLE2=N.S.U.
EXTD=
EXTT0=
EXTT1=
EXTT2=
PLAYORDER=
